PathFileType	4	(X/Y/Z)	ScaleMarkers.trc																																																																																								
DataRate	CameraRate	NumFrames	NumMarkers	Units	OrigDataRate	OrigDataStartFrame	OrigNumFrames																																																																																				
100	100	4	30	mm	100	13 100																																																																																					
Frame#	Time	Thumb_MCP_L			Thumb_PIP_L			Thumb_DIP_L			Thumb_TIP_L			Index_MCP_L			Index_PIP_L			Index_DIP_L			Index_TIP_L			Middle_MCP_L			Middle_PIP_L			Middle_DIP_L			Middle_TIP_L			Ring_MCP_L			Ring_PIP_L			Ring_DIP_L			Ring_TIP_L			Little_MCP_L			Little_PIP_L			Little_DIP_L			Little_TIP_L			Wrist_L			Elbow_L			Point_W1_L			Point_E1_L			Shoulder_L			Point_F1_L			Point_F2_L			Point_F3_L			Point_F4_L			Point_F5_L		
		X1	Y1	Z1	X2	Y2	Z2	X3	Y3	Z3	X4	Y4	Z4	X5	Y5	Z5	X6	Y6	Z6	X7	Y7	Z7	X8	Y8	Z8	X9	Y9	Z9	X10	Y10	Z10	X11	Y11	Z11	X12	Y12	Z12	X13	Y13	Z13	X14	Y14	Z14	X15	Y15	Z15	X16	Y16	Z16	X17	Y17	Z17	X18	Y18	Z18	X19	Y19	Z19	X20	Y20	Z20	X21	Y21	Z21	X22	Y22	Z22	X23	Y23	Z23	X24	Y24	Z24	X25	Y25	Z25	X26	Y26	Z26	X27	Y27	Z27	X28	Y28	Z28	X29	Y29	Z29	X30	Y30	Z30
13	13.86348617	193.2364108	-111.1834871	-165.0043127	199.7341401	-102.918695	-152.9468728	208.7872207	-112.8914298	-149.1331398	216.7891788	-125.5337851	-148.0655391	198.263147	-113.4714169	-183.8707027	220.3924812	-120.9801749	-165.056273	211.8042187	-137.5456929	-157.8592358	204.0238809	-152.4448496	-151.4195027	194.0163243	-117.1709361	-184.514171	221.7727134	-131.491698	-177.5534774	211.7612802	-147.5295564	-164.4556105	200.2717901	-159.9702738	-153.8143167	190.9073226	-121.7938758	-190.1817523	221.048095	-131.569625	-185.7033903	211.1021058	-146.9961166	-173.5769776	201.3503306	-160.6843899	-162.7357257	188.4679775	-122.0612053	-190.3634808	210.8367106	-126.5188026	-193.3361977	210.8411776	-138.256073	-187.7472914	195.3618325	-146.4066594	-180.3416746	158.429548	-101.8077939	-163.2921829	-37.74946063	-128.3688463	-134.8939741	168.5610732	-84.9342049	-159.7374195	-33.87940527	-143.1127055	-121.9463545	0	0	0	206.8647307	-103.6164138	-177.5392292	206.9111442	-124.2399077	-198.3373272	191.9530463	-128.9647804	-200.5338551	189.4929786	-133.5508986	-206.2999048	184.4418075	-130.4943485	-208.0492768
14	13.87348617	193.1820126	-111.1616491	-165.1256269	199.1489753	-102.9763725	-152.7375994	208.3017618	-112.6917435	-148.5798348	216.3907349	-125.2831189	-147.5886112	198.1976381	-113.4539749	-183.9936839	220.2682787	-120.98679	-165.1224865	211.7721551	-137.5730115	-157.8699469	204.0045737	-152.4781867	-151.4272335	193.953016	-117.1570411	-184.6329723	221.6543056	-131.5423208	-177.5823652	211.65655	-147.5844569	-164.4866808	200.162769	-160.0261878	-153.8520762	190.8433616	-121.7850562	-190.2965388	220.9787872	-131.5221412	-185.7152818	211.0919758	-146.9821926	-173.5819166	201.342263	-160.6785434	-162.7482439	188.4040794	-122.0541053	-190.4767914	210.8136781	-126.60137	-192.9822873	210.9362894	-138.2681827	-187.2488661	195.4854134	-146.5252687	-179.8932197	158.3695832	-101.8114399	-163.3919736	-37.8078425	-128.3318517	-134.9148032	168.4914072	-84.92956027	-159.8499734	-33.93510548	-143.0792895	-121.97179	0	0	0	207.0801193	-103.1844597	-177.0934149	206.8757623	-124.2213497	-198.4406924	191.9060702	-128.9551236	-200.6518683	189.4904559	-133.5607101	-206.4052896	184.673102	-130.7502005	-208.0964252
15	13.88348617	193.0962696	-111.1422904	-165.1526586	199.1079157	-102.689636	-152.9695438	208.15192	-112.6407835	-149.0783385	216.2387136	-125.2249572	-147.9516344	198.1221486	-113.4477287	-184.0172111	220.1621666	-120.9729687	-165.1060521	211.7477302	-137.5818507	-157.8028188	203.9939064	-152.4958632	-151.3645969	193.8793156	-117.1528664	-184.6552694	221.6082553	-131.4591417	-177.5478576	211.6770021	-147.5485992	-164.4503757	200.1675415	-159.9977737	-153.8412811	190.7742793	-121.7863946	-190.3165223	220.9196489	-131.482552	-185.7045693	211.0771169	-146.9689185	-173.5678371	201.3320322	-160.6740894	-162.7415183	188.3351938	-122.0567912	-190.497438	210.755336	-126.3319571	-193.3391019	210.7145736	-138.0669618	-187.7461087	195.2739218	-146.3794	-180.4342489	158.2793393	-101.8033938	-163.4420221	-37.86907585	-128.3984347	-134.8323595	168.3927919	-84.9146378	-159.9097268	-33.98216173	-143.1394041	-121.8864833	0	0	0	206.9006455	-103.3660362	-177.3579965	206.8337306	-124.2081196	-198.4512099	191.8912626	-128.9641504	-200.6721692	189.4494772	-133.5681113	-206.4237353	184.4803274	-130.489338	-208.2184855
16	13.89348617	192.96807	-111.1668643	-165.1293139	198.9512175	-102.818739	-152.8656378	208.0373559	-112.6931177	-148.8681399	216.1773783	-125.2447364	-147.6970149	198.0297687	-113.4994506	-183.9802439	220.1000398	-120.981528	-165.087864	211.733104	-137.6044757	-157.7651223	203.9913585	-152.5274791	-151.3302472	193.7908307	-117.2088289	-184.6203205	221.6229193	-131.2863032	-177.4616186	211.7578744	-147.4229757	-164.3709716	200.2229275	-159.8831978	-153.802471	190.6995933	-121.8535448	-190.2799015	220.8893899	-131.4195208	-185.6940373	211.0594289	-146.9261502	-173.5671704	201.3195506	-160.6466735	-162.7520431	188.2610439	-122.1260211	-190.4650225	210.6936364	-126.361583	-193.2956174	210.7452464	-138.1125278	-187.7461345	195.3082568	-146.4513325	-180.4562716	158.1411814	-101.8512641	-163.4912707	-37.97536269	-128.491873	-134.7178824	168.2356518	-84.9501878	-159.9666682	-34.07304883	-143.2238166	-121.766539	0	0	0	206.8245711	-103.3225313	-177.2365873	206.7462671	-124.2472611	-198.4195856	191.9244121	-129.0502207	-200.6293089	189.4132646	-133.6382682	-206.3882973	184.4326573	-130.5318528	-208.2028709
